<?xml version="1.0" ?><svg baseProfile="tiny" height="24px" version="1.2" viewBox="0 0 24 24" width="24px" xml:space="preserve" xmlns="http://www.w3.org/2000/svg" xmlns:xlink="http://www.w3.org/1999/xlink"><g id="Layer_1"><path d="M20.781,17.375L18.081,14H19c0.373,0,0.715-0.207,0.887-0.538c0.172-0.331,0.146-0.729-0.068-1.035l-7-10   c-0.317-0.452-0.94-0.562-1.393-0.246c-0.091,0.063-0.158,0.146-0.221,0.231c-0.025,0.015-7.025,10.015-7.025,10.015   c-0.214,0.306-0.24,0.704-0.068,1.035C4.285,13.793,4.627,14,5,14h0.919l-2.7,3.375c-0.24,0.301-0.287,0.712-0.121,1.059   C3.265,18.779,3.616,19,4,19h7v3c0,0.553,0.448,1,1,1s1-0.447,1-1v-3h7c0.384,0,0.735-0.221,0.901-0.566   C21.068,18.087,21.021,17.676,20.781,17.375z M13,17v-5c0-0.553-0.448-1-1-1s-1,0.447-1,1v5H6.081l2.7-3.375   c0.24-0.301,0.287-0.712,0.121-1.059C8.735,12.221,8.384,12,8,12H6.92L12,4.744L17.08,12H16c-0.384,0-0.735,0.221-0.901,0.566   c-0.167,0.347-0.12,0.758,0.121,1.059l2.7,3.375H13z"/></g></svg>